M48
; DRILL file {KiCad (5.1.12)-1} date 11/13/21 03:11:09
; FORMAT={-:-/ absolute / inch / decimal}
; #@! TF.CreationDate,2021-11-13T03:11:09+08:00
; #@! TF.GenerationSoftware,Kicad,Pcbnew,(5.1.12)-1
; #@! TF.FileFunction,Plated,1,2,PTH
FMAT,2
INCH
T1C0.0157
T2C0.0315
T3C0.0394
T4C0.0433
T5C0.0512
T6C0.0591
T7C0.0669
%
G90
G05
T1
X2.0276Y-3.9665
X2.0276Y-4.065
X2.6575Y-4.0591
X2.8071Y-4.7358
X2.9232Y-3.6811
X3.2047Y-5.1929
X3.3583Y-5.248
X3.6457Y-5.2835
X3.8937Y-4.9134
X4.0687Y-5.1907
X4.0945Y-3.6811
X4.1339Y-2.3327
X4.4252Y-4.5984
X4.439Y-4.2756
X4.4862Y-4.315
X4.7146Y-4.2618
X4.8031Y-4.6516
X4.9311Y-2.3327
X5.2461Y-3.6811
X5.622Y-4.5197
X6.3976Y-3.6811
X7.3524Y-2.3327
X7.5295Y-3.6811
X7.8051Y-3.9665
X7.8051Y-4.065
T2
X2.2146Y-3.5827
X2.2146Y-3.8827
X2.4461Y-3.778
X2.4461Y-3.878
X2.7461Y-3.778
X2.7461Y-3.878
X3.0413Y-4.2374
X3.0413Y-4.5374
X3.1413Y-4.2374
X3.1413Y-4.5374
X3.2413Y-4.2374
X3.2413Y-4.5374
X3.3413Y-4.2374
X3.3413Y-4.5374
X3.3661Y-3.5827
X3.3661Y-3.8827
X3.4413Y-4.2374
X3.4413Y-4.5374
X3.5413Y-4.2374
X3.5413Y-4.5374
X3.5976Y-3.778
X3.5976Y-3.878
X3.6413Y-4.2374
X3.6413Y-4.5374
X3.7413Y-4.2374
X3.7413Y-4.5374
X3.7992Y-4.7382
X3.8413Y-4.2374
X3.8413Y-4.5374
X3.8976Y-3.778
X3.8976Y-3.878
X3.9413Y-4.2374
X3.9413Y-4.5374
X3.9921Y-4.7382
X4.0413Y-4.2374
X4.0413Y-4.5374
X4.1413Y-4.2374
X4.1413Y-4.5374
X4.2413Y-4.2374
X4.2413Y-4.5374
X4.3413Y-4.2374
X4.3413Y-4.5374
X4.5177Y-3.5827
X4.5177Y-3.8827
X4.7492Y-3.778
X4.7492Y-3.878
X5.0492Y-3.778
X5.0492Y-3.878
X5.6693Y-3.5827
X5.6693Y-3.8827
X5.9008Y-3.778
X5.9008Y-3.878
X6.2008Y-3.778
X6.2008Y-3.878
X6.8209Y-3.5827
X6.8209Y-3.8827
X7.0524Y-3.778
X7.0524Y-3.878
X7.3524Y-3.778
X7.3524Y-3.878
T3
X3.0579Y-4.7008
X3.1579Y-4.7008
X3.2579Y-4.7008
T4
X2.2933Y-4.7358
X2.3917Y-4.6358
X2.3917Y-4.8358
X2.5098Y-3.2087
X2.6098Y-3.3071
X2.7098Y-3.2087
X3.6614Y-3.2087
X3.7614Y-3.3071
X3.8614Y-3.2087
X4.813Y-3.2087
X4.913Y-3.3071
X5.013Y-3.2087
X5.9646Y-3.2087
X6.0646Y-3.3071
X6.1646Y-3.2087
X7.1161Y-3.2087
X7.2161Y-3.3071
X7.3161Y-3.2087
T5
X2.7953Y-2.3327
X2.9921Y-2.3327
X5.2185Y-2.3327
X5.4154Y-2.3327
X5.6122Y-2.3327
X5.8091Y-2.3327
X6.0059Y-2.3327
X6.2028Y-2.3327
X6.3996Y-2.3327
X6.5965Y-2.3327
X6.7933Y-2.3327
X6.9902Y-2.3327
T6
X3.7067Y-2.3327
X4.5965Y-2.3327
T7
X2.5114Y-5.5512
X2.6673Y-5.5512
X2.932Y-5.5512
X3.0879Y-5.5512
X3.3525Y-5.5512
X3.5084Y-5.5512
X3.773Y-5.5512
X3.929Y-5.5512
X4.1936Y-5.5512
X4.3495Y-5.5512
X4.6141Y-5.5512
X4.77Y-5.5512
X5.0347Y-5.0492
X5.0347Y-5.5512
X5.1906Y-5.0492
X5.1906Y-5.5512
X5.4552Y-5.0512
X5.4552Y-5.5512
X5.6111Y-5.0512
X5.6111Y-5.5512
X5.8758Y-5.0512
X5.8758Y-5.5512
X6.0317Y-5.0512
X6.0317Y-5.5512
X6.2963Y-5.0512
X6.2963Y-5.5512
X6.4522Y-5.0512
X6.4522Y-5.5512
X6.7169Y-5.0512
X6.7169Y-5.5512
X6.8728Y-5.0512
X6.8728Y-5.5512
X7.1374Y-5.0512
X7.1374Y-5.5512
X7.2419Y-4.2126
X7.2419Y-4.3685
X7.2419Y-4.5244
X7.2933Y-5.0512
X7.2933Y-5.5512
T0
M30
